<?xml version="1.0" encoding="utf-8"?>
<!-- Generator: Adobe Illustrator 18.1.0, SVG Export Plug-In . SVG Version: 6.00 Build 0)  -->
<!DOCTYPE svg PUBLIC "-//W3C//DTD SVG 1.1//EN" "http://www.w3.org/Graphics/SVG/1.1/DTD/svg11.dtd">
<svg version="1.1" id="Layer_1" xmlns="http://www.w3.org/2000/svg" xmlns:xlink="http://www.w3.org/1999/xlink" x="0px" y="0px"
	 viewBox="313.2 238.6 165.6 134.7" enable-background="new 313.2 238.6 165.6 134.7" xml:space="preserve">
<path fill="#5FA9DD" d="M478.8,254.6c-6.1,2.7-12.6,4.5-19.5,5.4c7-4.2,12.4-10.9,14.9-18.8c-6.5,3.9-13.8,6.7-21.6,8.2
	c-6.2-6.6-15-10.7-24.8-10.7c-18.8,0-34,15.2-34,34c0,2.7,0.3,5.2,0.9,7.8c-28.3-1.4-53.3-14.9-70.1-35.5c-2.9,5-4.6,10.9-4.6,17.1
	c0,11.8,6,22.2,15.1,28.3c-5.6-0.2-10.8-1.7-15.4-4.3c0,0.1,0,0.3,0,0.5c0,16.4,11.7,30.2,27.2,33.3c-2.8,0.8-5.8,1.2-8.9,1.2
	c-2.2,0-4.3-0.2-6.4-0.6c4.3,13.5,16.9,23.4,31.8,23.6c-11.6,9.1-26.3,14.6-42.2,14.6c-2.7,0-5.4-0.1-8.1-0.5
	c15,9.6,32.9,15.3,52.1,15.3c62.5,0,96.7-51.8,96.7-96.7c0-1.5-0.1-2.9-0.1-4.4C468.5,267.4,474.3,261.4,478.8,254.6z"/>
</svg>
