<?xml version="1.0" encoding="utf-8"?>
<!-- Generator: Adobe Illustrator 18.1.0, SVG Export Plug-In . SVG Version: 6.00 Build 0)  -->
<!DOCTYPE svg PUBLIC "-//W3C//DTD SVG 1.1//EN" "http://www.w3.org/Graphics/SVG/1.1/DTD/svg11.dtd">
<svg version="1.1" id="Layer_1" xmlns="http://www.w3.org/2000/svg" xmlns:xlink="http://www.w3.org/1999/xlink" x="0px" y="0px"
	 viewBox="-345 269.6 100 75.4" enable-background="new -345 269.6 100 75.4" xml:space="preserve">
<path d="M-245,345h-100v-75.4h100V345L-245,345z M-333.2,338h76.3l-25.1-25.7l-4.8,4.8c-2.1,2.1-5,3.2-8.1,3.2c0,0,0,0-0.1,0
	c-3.1,0-6.1-1.2-8.1-3.3l-4.8-4.9L-333.2,338L-333.2,338z M-338,281.6V333l25.3-25.8L-338,281.6L-338,281.6z M-277,307.4L-252,333
	v-50.9L-277,307.4L-277,307.4z M-333.2,276.6l35.1,35.6c0.8,0.8,1.9,1.2,3.2,1.2c0,0,0,0,0,0c1.2,0,2.4-0.4,3.2-1.2l35.4-35.6
	H-333.2L-333.2,276.6z"/>
</svg>
