<?xml version="1.0" encoding="utf-8"?>
<!-- Generator: Adobe Illustrator 18.1.0, SVG Export Plug-In . SVG Version: 6.00 Build 0)  -->
<!DOCTYPE svg PUBLIC "-//W3C//DTD SVG 1.1//EN" "http://www.w3.org/Graphics/SVG/1.1/DTD/svg11.dtd">
<svg version="1.1" id="Layer_1" xmlns="http://www.w3.org/2000/svg" xmlns:xlink="http://www.w3.org/1999/xlink" x="0px" y="0px"
	 viewBox="231.4 224.1 165.7 161.6" enable-background="new 231.4 224.1 165.7 161.6" xml:space="preserve">
<path fill="#191717" d="M314.2,224.1c-45.7,0-82.8,37.1-82.8,82.8c0,36.6,23.7,67.6,56.6,78.6c4.1,0.8,5.6-1.8,5.6-4
	c0-1.9-0.1-7.2-0.1-14.1c-23,5-27.9-11.1-27.9-11.1c-3.8-9.6-9.2-12.1-9.2-12.1c-7.5-5.1,0.6-5,0.6-5c8.3,0.6,12.7,8.5,12.7,8.5
	c7.4,12.7,19.4,9,24.1,6.9c0.8-5.4,2.9-9,5.2-11.1c-18.4-2.1-37.7-9.2-37.7-41c0-9.1,3.2-16.4,8.5-22.2c-0.8-2.1-3.7-10.5,0.8-21.9
	c0,0,6.9-2.2,22.8,8.5c6.6-1.8,13.7-2.8,20.7-2.8c7.1,0,14.1,1,20.7,2.8c15.8-10.7,22.8-8.5,22.8-8.5c4.5,11.4,1.7,19.8,0.8,21.9
	c5.3,5.8,8.5,13.2,8.5,22.2c0,31.8-19.3,38.8-37.8,40.9c3,2.6,5.6,7.6,5.6,15.3c0,11.1-0.1,20-0.1,22.7c0,2.2,1.5,4.8,5.7,4
	c32.9-11,56.6-42,56.6-78.6C397,261.2,360,224.1,314.2,224.1z"/>
</svg>
